<svg id="Camada_1" data-name="Camada 1" xmlns="http://www.w3.org/2000/svg" viewBox="0 0 35.36 31.7"><defs><style>.cls-1{fill:#fff;}</style></defs><title>Prancheta 4 cópia 6</title><path class="cls-1" d="M17.75,26.59l-.1,0a.27.27,0,0,1-.15,0v0c-1.31-.54-5.3-4.43-5.35-4.48-3.49-3.44-5.59-6.48-6.24-9h0a6.64,6.64,0,0,1,.87-5.81A6,6,0,0,1,11.65,5.1a8.25,8.25,0,0,1,6,2.58A8.38,8.38,0,0,1,23.71,5.1a6,6,0,0,1,4.86,2.12A6.64,6.64,0,0,1,29.44,13c-.65,2.54-2.76,5.58-6.27,9-.05.05-4.07,4-5.38,4.48v0Zm-6.1-20A4.42,4.42,0,0,0,8,8.14a5.17,5.17,0,0,0-.6,4.52h0c1.2,4.68,8.26,10.72,10.27,12.26,2-1.54,9.14-7.58,10.34-12.26a5.17,5.17,0,0,0-.61-4.52A4.42,4.42,0,0,0,23.71,6.6a6.89,6.89,0,0,0-5.44,2.67.74.74,0,0,1-.62.33h0A.76.76,0,0,1,17,9.26,6.74,6.74,0,0,0,11.65,6.6Z"/></svg>