<svg id="Camada_1" data-name="Camada 1" xmlns="http://www.w3.org/2000/svg" viewBox="0 0 35.36 31.7"><defs><style>.cls-1{fill:#fff;}</style></defs><title>Prancheta 4 cópia 13</title><path class="cls-1" d="M28.57,27.49H6.79A.76.76,0,0,1,6,26.74V5a.75.75,0,0,1,.75-.75H28.57a.74.74,0,0,1,.75.75V26.74A.75.75,0,0,1,28.57,27.49ZM22.17,26h5.65V20.33H22.17V26Zm-7.29,0h5.79V20.33H14.88V26ZM7.54,26h5.84V20.33H7.54Zm14.63-7.16h5.65V13.05H22.17Zm-7.29,0h5.79V13.05H14.88Zm-7.34,0h5.84V13.05H7.54Zm14.63-7.28h5.65V5.71H22.17Zm-7.29,0h5.79V5.71H14.88Zm-7.34,0h5.84V5.71H7.54Z"/></svg>