<svg id="Camada_1" data-name="Camada 1" xmlns="http://www.w3.org/2000/svg" viewBox="0 0 35.36 31.7"><defs><style>.cls-1{fill:red;}</style></defs><title>Prancheta 4 cópia 7</title><path class="cls-1" d="M6.65,12.85c-1-4,1-7,5-7a7.5,7.5,0,0,1,6,3h.06a7.5,7.5,0,0,1,6-3c4,0,6,3,5,7-1.48,5.8-11.07,13.05-11.06,13S8.14,18.65,6.65,12.85Z"/><path class="cls-1" d="M17.55,26.59H17.5v0c-1.31-.53-5.3-4.43-5.35-4.48-3.49-3.44-5.59-6.48-6.24-9h0A6.61,6.61,0,0,1,6.8,7.22,5.92,5.92,0,0,1,11.65,5.1a8.21,8.21,0,0,1,6,2.61,8.23,8.23,0,0,1,6-2.61,5.94,5.94,0,0,1,4.86,2.12A6.64,6.64,0,0,1,29.44,13c-.65,2.54-2.76,5.58-6.27,9-.05.05-4.07,3.94-5.38,4.48v0a.27.27,0,0,1-.15,0ZM7.38,12.66c1.19,4.67,8.26,10.71,10.27,12.26,2-1.54,9.14-7.58,10.34-12.26a5.17,5.17,0,0,0-.61-4.52A4.42,4.42,0,0,0,23.71,6.6a6.66,6.66,0,0,0-5.37,2.67l-.23.33h-.8L17,9.26A6.74,6.74,0,0,0,11.65,6.6,4.42,4.42,0,0,0,8,8.14a5.17,5.17,0,0,0-.6,4.52Z"/></svg>