<svg id="Camada_1" data-name="Camada 1" xmlns="http://www.w3.org/2000/svg" viewBox="0 0 35.36 31.7"><defs><style>.cls-1{fill:#fff;}</style></defs><title>Prancheta 4 cópia 15</title><path class="cls-1" d="M24.66,26.78h-14a5,5,0,0,1-5-5V12.68a5,5,0,0,1,4.89-5h0a1.25,1.25,0,0,0,1.14-.85h0a4,4,0,0,1,3.78-2.66h4.3a4,4,0,0,1,3.78,2.66h0a1.26,1.26,0,0,0,1.14.85h0a5,5,0,0,1,4.89,5V21.8A5,5,0,0,1,24.66,26.78Zm-7-1h7a4,4,0,0,0,4-4V12.68a4,4,0,0,0-4-4h0a2.26,2.26,0,0,1-2-1.48h0a3,3,0,0,0-2.85-2h-4.3a3,3,0,0,0-2.85,2h0a2.25,2.25,0,0,1-2,1.48h0a4,4,0,0,0-4,4V21.8a4,4,0,0,0,4,4Zm0-3.12A5.69,5.69,0,1,1,23.37,17,5.69,5.69,0,0,1,17.68,22.66Zm0-10.37A4.69,4.69,0,1,0,22.37,17,4.69,4.69,0,0,0,17.68,12.29Z"/></svg>