<svg id="Camada_1" data-name="Camada 1" xmlns="http://www.w3.org/2000/svg" viewBox="0 0 35.36 31.7"><defs><style>.cls-1{fill:#fff;}</style></defs><title>Prancheta 4 cópia 14</title><path class="cls-1" d="M27.14,27.75H8.23a2.72,2.72,0,0,1-2.71-2.7V8.65A2.71,2.71,0,0,1,8.23,6h6.3c.36-.37,1.38-1.43,2.3-2.41L17.35,3l3.13,3h6.66a2.7,2.7,0,0,1,2.7,2.7v16.4A2.71,2.71,0,0,1,27.14,27.75Zm-1-1.5h1a1.2,1.2,0,0,0,1.2-1.2V8.65a1.2,1.2,0,0,0-1.2-1.2h-7a.76.76,0,0,1-.27,0h0a.8.8,0,0,1-.21-.13h0l0,0L17.41,5.12C16,6.65,15.5,7.1,15.33,7.24a.27.27,0,0,1-.08.07h0a.65.65,0,0,1-.22.11l-.22,0H8.23A1.21,1.21,0,0,0,7,8.65v16.4a1.21,1.21,0,0,0,1.21,1.2h.92v-.73a5.2,5.2,0,0,1,5.19-5.19H21a5.2,5.2,0,0,1,5.19,5.19Zm-15.53,0h14v-.73A3.69,3.69,0,0,0,21,21.83H14.34a3.7,3.7,0,0,0-3.69,3.69Zm7.1-6.45a5.32,5.32,0,1,1,5.32-5.32A5.33,5.33,0,0,1,17.75,19.8Zm0-9.14a3.82,3.82,0,1,0,3.82,3.82A3.82,3.82,0,0,0,17.75,10.66Z"/></svg>