<svg id="Camada_1" data-name="Camada 1" xmlns="http://www.w3.org/2000/svg" viewBox="0 0 35.36 31.7"><defs><style>.cls-1{fill:#fff;}</style></defs><title>Prancheta 4 cópia 5</title><path class="cls-1" d="M28,28a.74.74,0,0,1-.75-.75v-2a5.17,5.17,0,0,0-5.16-5.16H13.25a5.17,5.17,0,0,0-5.16,5.16v2a.75.75,0,0,1-1.5,0v-2a6.66,6.66,0,0,1,6.66-6.66h8.87a6.67,6.67,0,0,1,6.66,6.66v2A.75.75,0,0,1,28,28ZM17.79,17.39a6.84,6.84,0,1,1,6.84-6.84A6.85,6.85,0,0,1,17.79,17.39Zm0-12.18a5.34,5.34,0,1,0,5.34,5.34A5.35,5.35,0,0,0,17.79,5.21Z"/></svg>