<svg id="Camada_1" data-name="Camada 1" xmlns="http://www.w3.org/2000/svg" viewBox="0 0 35.36 31.7"><defs><style>.cls-1{fill:#fff;}</style></defs><title>Prancheta 4 cópia 16</title><path class="cls-1" d="M21.52,26.65H12.81a6.07,6.07,0,0,1-6.07-6.07V11.86a6.08,6.08,0,0,1,6.07-6.07h5.77a.51.51,0,0,1,.5.5.5.5,0,0,1-.5.5H12.81a5.08,5.08,0,0,0-5.07,5.07v8.72a5.08,5.08,0,0,0,5.07,5.07h8.71a5.08,5.08,0,0,0,5.07-5.07v-6a.5.5,0,0,1,.5-.5.5.5,0,0,1,.5.5v6A6.07,6.07,0,0,1,21.52,26.65Zm-10.66-4.1L11,18,23.61,4.8a2.24,2.24,0,0,1,1.63-.69h0a2.46,2.46,0,0,1,1.67.69l.95.9A2.35,2.35,0,0,1,28,9l-1.9,2h0v0L15.43,22.17Zm4.34-.86h0ZM12,18.39l-.11,3.07L15,21.21,25,10.67l-3-2.82ZM22.77,7.13,25.72,10l1.57-1.63a1.35,1.35,0,0,0-.12-1.9l-.94-.9a1.47,1.47,0,0,0-1-.41h0a1.25,1.25,0,0,0-.91.39Z"/></svg>